<?xml version="1.0" encoding="utf-8"?>
<!-- Generator: Adobe Illustrator 22.1.0, SVG Export Plug-In . SVG Version: 6.00 Build 0)  -->
<svg version="1.1" id="Layer_1" xmlns="http://www.w3.org/2000/svg" xmlns:xlink="http://www.w3.org/1999/xlink" x="0px" y="0px"
	 viewBox="0 0 205 90" style="enable-background:new 0 0 205 90;" xml:space="preserve">
<style type="text/css">
	.st0{fill:#7E929F;}
	.st1{fill:#1C3F94;}
</style>
<title>UHC-GRIC_COLOR</title>
<g id="Layer_2_1_">
	<g id="Layer_1-2">
		<path class="st0" d="M42.7,64V62c-0.6,1-2.3,2.5-5.4,2.5c-4.4,0-7.4-3.1-7.4-7.6c0-5,3.3-8,7.7-8c2.4,0,5.4,0.9,6.9,4.3l-2.1,0.5
			c-0.6-2-2.4-3.2-4.8-3.2c-3.8,0-5.5,3.1-5.5,6.1c0,4.3,2.7,6.1,5.5,6.1c2.7,0,5.1-1.7,5.1-4.6v-0.2h-5.2v-1.7h6.9V64H42.7z"/>
		<path class="st0" d="M51.4,53.8c2.3,0,4.7,1.6,4.7,5.2c0,3.6-2.2,5.4-4.9,5.4c-2.8,0-4.9-1.9-4.9-5.3
			C46.4,57.5,47.1,53.8,51.4,53.8z M51.3,63c2,0,3.1-1.6,3.1-4.1c0-1.7-0.7-3.7-2.9-3.7c-3.1,0-3.2,3.4-3.2,4
			C48.2,60.3,48.6,63,51.3,63z"/>
		<path class="st0" d="M58.1,64V49.2h1.6V64H58.1z"/>
		<path class="st0" d="M69.5,64v-1.3c-0.8,1-2.1,1.6-3.4,1.6c-2.9,0-4.6-2.2-4.6-5.3c0-3.9,2.5-5.2,4.5-5.2c1.3,0,2.6,0.6,3.4,1.6
			v-6.2h1.7V64L69.5,64z M66.4,62.9c1.5,0,3.1-0.9,3.1-3.9c0-2-1.2-3.6-3.1-3.6c-2.3,0-3.1,1.9-3.1,3.8C63.3,60.9,64,62.9,66.4,62.9
			z"/>
		<path class="st0" d="M74.8,59.5c0,1.5,0.8,3.6,3.2,3.6c1.7,0,2.4-1.4,2.6-2.3l1.7,0.2c-0.5,2-2.4,3.4-4.5,3.3
			c-2.4,0-4.9-1.5-4.9-5.4c0-3.8,2.7-5.2,4.8-5.2c2.2,0,4.5,1.5,4.5,5.3v0.3h-7.5V59.5z M80.5,58.2c0.1-1.6-1.2-3-2.8-3.1
			c0,0-0.1,0-0.1,0c-1.8,0-2.7,1.5-2.8,3.1H80.5z"/>
		<path class="st0" d="M90.7,64v-6.5c0-1.5-1.1-2.2-2.3-2.2c-1.4,0-2.6,1.1-2.6,2.6c0,0.1,0,0.1,0,0.2V64h-1.7v-9.9h1.7v1.5
			c1-1.7,3.2-2.3,5-1.3c0.4,0.2,0.7,0.5,1,0.9c0.5,0.8,0.7,1.7,0.6,2.6V64H90.7z"/>
		<path class="st0" d="M110.3,64l-4.1-6.3h-3.8V64h-1.9V49.2h6.7c2.8,0,4.8,1.4,4.8,4.3c0,1.8-0.8,3.6-3.5,4.1l4.2,6.4H110.3z
			 M106.8,56.1c1.7,0,3.2-0.5,3.2-2.5c0-1.7-1.1-2.7-3-2.7h-4.7v5.2H106.8z"/>
		<path class="st0" d="M120.4,64v-1.5c-0.8,1.1-2,1.8-3.4,1.8c-0.4,0-1.9-0.1-2.7-1.3c-0.4-0.8-0.6-1.6-0.5-2.5v-6.4h1.7v5.6
			c0,1.1,0,1.5,0.2,2c0.4,0.6,1.1,1,1.8,0.9c0.9,0,1.8-0.4,2.4-1.1c0.4-0.7,0.6-1.6,0.5-2.4v-5.1h1.6V64H120.4z"/>
		<path class="st0" d="M124.6,64V49.2h1.6V64H124.6z"/>
		<path class="st0" d="M129.9,59.5c0,1.5,0.8,3.6,3.2,3.6c1.7,0,2.4-1.4,2.6-2.3l1.7,0.2c-0.5,2-2.4,3.4-4.5,3.3
			c-2.4,0-4.9-1.5-4.9-5.4c0-3.8,2.7-5.2,4.8-5.2c2.2,0,4.5,1.5,4.5,5.3v0.3h-7.5V59.5z M135.6,58.2c0.1-1.6-1.2-3-2.8-3.1
			c0,0-0.1,0-0.1,0c-1.8,0-2.7,1.5-2.8,3.1H135.6z"/>
		<path class="st0" d="M30.2,85.1V70.2h2v14.9H30.2z"/>
		<path class="st0" d="M41.2,85.1v-6.5c0-1.5-1.1-2.2-2.3-2.2c-1.4,0-2.6,1.1-2.6,2.6c0,0.1,0,0.1,0,0.2v5.9h-1.7v-9.9h1.7v1.4
			c1-1.7,3.2-2.3,5-1.3c0.4,0.2,0.7,0.5,1,0.9c0.5,0.8,0.7,1.7,0.6,2.6v6.3L41.2,85.1z"/>
		<path class="st0" d="M46.5,81.6c-0.1,0.6,0.1,1.3,0.6,1.7c0.6,0.6,1.4,0.8,2.2,0.8c0.8,0,2.3-0.3,2.3-1.7c0-1.2-1.1-1.4-2.1-1.6
			l-1-0.2c-2.7-0.5-3.5-1.5-3.5-2.9c0-2.2,2.1-3,3.9-3c1.5-0.1,2.9,0.6,3.7,1.7c0.3,0.5,0.5,1,0.5,1.5l-1.8,0.2c0-0.3,0-0.6-0.1-0.9
			c-0.3-0.6-1.1-1.3-2.5-1.3s-2,0.8-2,1.5c0,0.9,0.9,1.2,2.4,1.6l1,0.2c1.9,0.4,3.3,1.1,3.3,2.9s-1.8,3.1-4.1,3.1
			c-3.2,0-4.3-1.6-4.6-3.5L46.5,81.6z"/>
		<path class="st0" d="M61.6,85.1v-1.5c-0.8,1.1-2,1.8-3.4,1.8c-0.4,0-1.9-0.1-2.7-1.3c-0.4-0.8-0.6-1.6-0.5-2.5v-6.4h1.7v5.6
			c0,1.1,0,1.5,0.2,2c0.4,0.6,1.1,1,1.8,0.9c0.9,0,1.8-0.4,2.4-1.1c0.4-0.7,0.6-1.6,0.5-2.4v-5.1h1.6v9.9L61.6,85.1z"/>
		<path class="st0" d="M67.4,75.2V77c0.2-0.4,0.5-0.8,0.9-1.1c0.7-0.5,1.6-0.8,2.5-0.8v1.8c-0.2,0-0.4-0.1-0.7-0.1
			c-1.2-0.1-2.3,0.7-2.6,1.9c-0.1,0.6-0.2,1.2-0.1,1.8v4.6h-1.7v-9.9H67.4z"/>
		<path class="st0" d="M77.9,78.8c0-0.9,0-2.7-2.2-2.7c-1.4,0-2.2,0.7-2.2,1.9v0.1l-1.7-0.1c0-0.5,0.3-3.3,3.8-3.3
			c0.9,0,1.7,0.2,2.5,0.6c1.4,0.8,1.5,1.8,1.5,3.6v3.5c0,0.6,0,1.1,0.8,1.1c0.2,0,0.3,0,0.5-0.1V85c-0.3,0.1-0.7,0.2-1.1,0.2
			c-0.4,0-0.7-0.1-1.1-0.3c-0.4-0.3-0.6-0.7-0.7-1.2c-0.8,1-2.1,1.6-3.4,1.6c-2,0-3.4-1.1-3.4-2.8c0-0.8,0.4-1.6,1.1-2.2
			c1-0.8,2.8-1,4-1.1l1.5-0.1L77.9,78.8z M74.3,81c-0.7,0.2-1.2,0.8-1.2,1.5c0,0.7,0.6,1.5,1.9,1.5c0.9,0,2.9-0.4,2.9-2.9v-0.8
			C76.7,80.4,75.5,80.6,74.3,81z"/>
		<path class="st0" d="M88.7,85.1v-6.5c0-1.5-1.1-2.2-2.3-2.2c-1.4,0-2.6,1.1-2.6,2.6c0,0.1,0,0.1,0,0.2v5.9h-1.7v-9.9h1.7v1.4
			c1-1.7,3.2-2.3,5-1.3c0.4,0.2,0.7,0.5,1,0.9c0.5,0.8,0.7,1.7,0.6,2.6v6.3L88.7,85.1z"/>
		<path class="st0" d="M101.8,81.5c-0.6,2.9-2.4,3.9-4.7,3.9c-3.1,0-4.9-2.2-4.9-5.2s1.6-5.4,4.8-5.4c3,0,4.3,1.9,4.6,3.3l-1.9,0.2
			c-0.1-1.4-1.3-2.4-2.7-2.3c-1.5,0-3,1-3,4c0,2.4,1.1,4,3.1,4c1.9,0,2.6-1.2,2.8-2.8L101.8,81.5z"/>
		<path class="st0" d="M104.7,80.6c0,1.5,0.8,3.6,3.2,3.6c1.7,0,2.4-1.4,2.6-2.3l1.7,0.2c-0.5,2-2.4,3.4-4.5,3.3
			c-2.4,0-4.9-1.5-4.9-5.4c0-3.8,2.7-5.2,4.8-5.2c2.2,0,4.5,1.5,4.5,5.3v0.3h-7.5V80.6z M110.4,79.2c0.1-1.6-1.2-3-2.8-3.1
			c0,0-0.1,0-0.1,0c-1.8,0-2.7,1.5-2.8,3.1H110.4z"/>
		<path class="st0" d="M133.7,79.7c-0.7,3.5-3.8,5.9-7.3,5.8c-4.5,0-7.3-3.2-7.3-7.8s2.8-7.8,7.5-7.8c3.5,0,5.8,1.7,6.8,4.5l-2,0.4
			c-0.6-2.1-2.6-3.5-4.8-3.4c-3.4,0-5.3,2.5-5.3,6.1c0,4.3,2.3,6.2,5.3,6.2c2.3,0,4.4-1.3,4.9-4.4L133.7,79.7z"/>
		<path class="st0" d="M139.6,74.9c2.3,0,4.7,1.6,4.7,5.2c0,3.6-2.2,5.4-4.9,5.4c-2.8,0-4.9-1.9-4.9-5.3
			C134.6,78.5,135.3,74.9,139.6,74.9z M139.5,84.1c2,0,3.1-1.6,3.1-4.1c0-1.7-0.7-3.7-2.9-3.7c-3.1,0-3.2,3.4-3.2,4
			C136.5,81.4,136.8,84.1,139.5,84.1L139.5,84.1z"/>
		<path class="st0" d="M158.1,85.1v-6.6c0-1.7-1.1-2-1.8-2c-1,0-2,0.7-2.4,1.6c-0.1,0.5-0.2,0.9-0.1,1.4v5.6h-1.6v-6.5
			c0-2-1.3-2.2-1.8-2.2c-1,0-1.9,0.6-2.4,1.5c-0.1,0.4-0.2,0.8-0.1,1.3v5.9h-1.6v-9.9h1.6v1.4c0.8-1,1.7-1.7,3-1.7
			c0.8,0,1.5,0.3,2.1,0.9c0.2,0.3,0.4,0.6,0.6,0.9c0.6-0.6,1.6-1.8,3.3-1.8c0.9,0,1.7,0.4,2.3,1.1c0.6,0.8,0.7,1.7,0.7,2.6v6.5
			L158.1,85.1z"/>
		<path class="st0" d="M163.8,75.2v1.4c0.9-1.1,2.2-1.7,3.5-1.7c2,0,4.5,1.6,4.5,5.3c0,2.3-1.1,5.2-4.7,5.2
			c-1.3,0.1-2.5-0.5-3.3-1.5v5.9h-1.6V75.2H163.8z M166.9,83.9c2.1,0,3.2-1.5,3.2-3.8c0-2.7-1.6-3.7-3.1-3.7c-1.9,0-3.2,1.4-3.2,3.9
			C163.8,82.6,165,83.9,166.9,83.9L166.9,83.9z"/>
		<path class="st0" d="M179.6,78.8c0-0.9,0-2.7-2.2-2.7c-1.4,0-2.2,0.7-2.2,1.9v0.1l-1.7-0.1c0-0.5,0.3-3.3,3.8-3.3
			c0.9,0,1.7,0.2,2.5,0.6c1.4,0.8,1.5,1.8,1.5,3.6v3.5c0,0.6,0,1.1,0.8,1.1c0.2,0,0.3,0,0.5-0.1V85c-0.3,0.1-0.7,0.2-1.1,0.2
			c-0.4,0-0.7-0.1-1.1-0.3c-0.4-0.3-0.6-0.7-0.7-1.2c-0.8,1-2.1,1.6-3.4,1.6c-2,0-3.4-1.1-3.4-2.8c0-0.8,0.4-1.6,1.1-2.2
			c1-0.8,2.8-1,4-1.1l1.5-0.1L179.6,78.8z M176,81c-0.7,0.2-1.2,0.8-1.2,1.5c0,0.7,0.6,1.5,1.9,1.5c0.9,0,2.9-0.4,2.9-2.9v-0.8
			C178.4,80.4,177.2,80.6,176,81z"/>
		<path class="st0" d="M190.4,85.1v-6.5c0-1.5-1.1-2.2-2.3-2.2c-1.4,0-2.6,1.1-2.6,2.6c0,0.1,0,0.1,0,0.2v5.9h-1.7v-9.9h1.7v1.4
			c1-1.7,3.2-2.3,5-1.3c0.4,0.2,0.7,0.5,1,0.9c0.5,0.8,0.7,1.7,0.6,2.6v6.3L190.4,85.1z"/>
		<path class="st0" d="M202,75.2l-4.2,11.7c-0.8,2.3-1.3,3.1-3.1,3.1c-0.5,0-1-0.1-1.5-0.2v-1.5c0.4,0.1,0.7,0.2,1.1,0.2
			c1,0,1.4-0.4,1.9-2.1l0.4-1.2l-3.4-10h1.8l2.5,7.9l2.6-7.9L202,75.2z"/>
		<path class="st1" d="M26.8,17.1h6.5v0.9c-1.8,0.1-1.9,0.4-1.9,1.8v11.7c0,2.5,1.4,3.8,3.5,3.8c2.3,0,3.7-1.5,3.7-3.9V20.1
			c0-1.4-0.4-2-2.1-2.1v-0.9h5.2v0.9C40,18,39.6,18.6,39.6,20v10.8c0,3.4-1.5,5.4-5.3,5.4s-5.6-2.1-5.6-5.5V19.8
			c0-1.4-0.2-1.7-1.9-1.8L26.8,17.1z"/>
		<path class="st1" d="M41.3,35.8v-0.9c1.3-0.1,1.7-0.6,1.7-1.4V25c0-1.2-0.3-1.4-1.8-1.4v-0.8l4-0.2v2.6h0.1
			c0.7-1.5,1.8-2.8,3.6-2.8c2.3,0,3.3,1.5,3.3,3.9v7.2c0,0.9,0.4,1.3,1.7,1.4v0.9h-4v-9.6c0-1.8-0.7-2.4-1.6-2.4
			c-1.4,0-2.9,1.9-2.9,4.5v5.2c0,0.8,0.4,1.3,1.7,1.4v0.9H41.3z"/>
		<path class="st1" d="M58.6,18.5c0,1-0.6,1.7-1.4,1.7c-0.8,0-1.4-0.7-1.4-1.7c0-1,0.6-1.7,1.4-1.7C58,16.8,58.6,17.5,58.6,18.5
			 M54.5,35.8v-0.9c1.3-0.1,1.7-0.6,1.7-1.4v-8.6c0-1.2-0.3-1.4-1.7-1.4v-0.9l4.1-0.1v11.1c0,0.8,0.4,1.3,1.7,1.4v0.9H54.5z"/>
		<path class="st1" d="M64.5,17.7v5h3.3v1h-3.3v9.6c0,1.2,0.4,1.7,1.1,1.7c0.9,0,1.6-0.6,1.6-3.5v-0.8h0.9v1.3c0,2.8-1,4-3.1,4
			c-1.8,0-2.9-1.1-2.9-3.3v-9h-1.7v-0.8c2-0.8,3-1.7,3.1-5.2L64.5,17.7z"/>
		<path class="st1" d="M79.2,29.1c0-3.9-1.9-6.7-4.9-6.7s-5.2,2.8-5.2,6.8c0,3.4,2.2,6.8,5.6,6.8c3,0,4.4-2.4,4.6-4.8l-0.9-0.2
			C78.2,32.9,77.3,35,75,35c-1.8,0-3.2-2.1-3.2-5.9L79.2,29.1z M71.8,28.1c0-3.5,1-4.8,2.6-4.8c1.4,0,2.3,1.4,2.3,4.8H71.8z"/>
		<path class="st1" d="M86.6,17.9c1.4,0.1,1.8,0.2,1.8,1.4v4.9h-0.1c-0.5-1.1-1.5-1.8-2.7-1.8c-2.8,0-5,2.9-5,6.9
			c0,4.3,2.3,6.8,4.7,6.8c1.7,0,2.6-1,3.1-2.2h0.1v2l3.8-0.2v-0.9c-1.1,0-1.6-0.4-1.6-1.9V16.9l-4.1,0.2L86.6,17.9z M83.3,29.3
			c0-4.2,1-5.9,2.5-5.9c1.7,0,2.7,2,2.7,5.9c0,4.7-1.4,5.9-2.9,5.9S83.2,33.5,83.3,29.3"/>
		<path class="st1" d="M93,35.8v-0.9c1.6-0.1,1.9-0.4,1.9-1.9V19.8c0-1.4-0.3-1.7-1.9-1.8v-0.9h6.6v0.9c-1.7,0.1-2,0.4-2,1.8v5.6
			h5.9v-5.6c0-1.4-0.3-1.7-2-1.8v-0.9h6.6v0.9c-1.6,0.1-1.9,0.4-1.9,1.8V33c0,1.4,0.3,1.7,1.9,1.9v0.9h-6.6v-0.9
			c1.7-0.1,2-0.4,2-1.9v-6.6h-5.9V33c0,1.4,0.3,1.7,2,1.9v0.9H93z"/>
		<path class="st1" d="M118.5,29.1c0-3.9-1.9-6.7-4.9-6.7s-5.2,2.8-5.2,6.8c0,3.4,2.2,6.8,5.6,6.8c3,0,4.4-2.4,4.6-4.8l-0.9-0.2
			c-0.3,1.9-1.1,3.9-3.5,3.9c-1.8,0-3.2-2.1-3.2-5.9L118.5,29.1z M111,28.1c0-3.5,1-4.8,2.6-4.8c1.4,0,2.3,1.4,2.3,4.8H111z"/>
		<path class="st1" d="M129.2,32c-0.1,2-0.3,2.6-0.8,2.6c-0.4,0-0.6-0.4-0.6-1.1v-7.6c0-2-1.2-3.4-4.2-3.4c-2.4,0-4.1,1.5-4.1,3.3
			c0,1.1,0.6,1.6,1.3,1.6c0.8,0,1.4-0.7,1.4-1.5c0,0,0-0.1,0-0.1c0-0.8-0.3-1.4-1.1-1.5c0.6-0.7,1.4-1.1,2.3-1
			c1.4,0,2.1,0.7,2.1,2.2v2.2c-2.3,0.9-6.6,2.2-6.6,5.2c0,1.8,1.2,3.1,3.3,3.1c1.9,0,2.7-0.9,3.4-2.1h0.1c0.2,1.5,0.9,2.1,2.2,2.1
			c1.7,0,2.3-1.2,2.3-4.1L129.2,32z M125.5,30.3c0,3.1-1.3,4.7-2.6,4.7c-0.8,0-1.5-0.7-1.5-2.2c0-2.3,2-3.3,4.1-4.1V30.3z"/>
		<path class="st1" d="M129.7,35.8v-0.9c1.3-0.1,1.7-0.6,1.7-1.4V19.4c0-0.9-0.5-1.4-1.8-1.5V17l4.1-0.2v16.6c0,0.8,0.4,1.3,1.7,1.4
			v0.9H129.7z"/>
		<path class="st1" d="M139.5,17.7v5h3.3v1h-3.3v9.6c0,1.2,0.4,1.7,1.1,1.7c0.9,0,1.6-0.6,1.6-3.5v-0.8h0.9v1.3c0,2.8-1,4-3.1,4
			c-1.8,0-2.9-1.1-2.9-3.3v-9h-1.7v-0.8c2-0.8,3-1.7,3.1-5.2L139.5,17.7z"/>
		<path class="st1" d="M143,35.8v-0.9c1.3-0.1,1.7-0.6,1.7-1.4V19.3c0-1.2-0.3-1.4-1.8-1.4V17l4.1-0.2v8h0.1
			c0.6-1.2,1.6-2.4,3.4-2.4c2.1,0,3.4,1.5,3.4,3.9v7.2c0,0.8,0.5,1.3,1.7,1.4v0.9h-4v-9.6c0-1.9-0.7-2.5-1.7-2.5
			c-1.4,0-2.8,1.8-2.8,4.4v5.4c0,0.8,0.4,1.3,1.7,1.4v0.9H143z"/>
		<path class="st1" d="M165.7,31.2c-0.2,2.6-1.4,4.9-4.4,4.9c-2.8,0-5.3-2.5-5.3-6.5c0-3.4,2.4-7.2,5.6-7.2c2.3,0,3.8,1.4,3.8,3.6
			c0,1.3-0.4,2-1.4,2c-0.8,0-1.3-0.7-1.3-1.6c0-1.2,0.4-1.6,1.1-1.6c0.1,0,0.3,0,0.4,0.1l0.1-0.1c-0.4-0.9-1.3-1.5-2.3-1.5
			c-2,0-3.4,2-3.4,5.9c0,4.6,1.4,5.9,3,5.9c2.2,0,2.9-2,3.2-3.9L165.7,31.2z"/>
		<path class="st1" d="M176.9,32c-0.1,2-0.3,2.6-0.8,2.6c-0.4,0-0.6-0.4-0.6-1.1v-7.6c0-2.1-1.2-3.4-4.2-3.4c-2.4,0-4.1,1.5-4.1,3.3
			c0,1.1,0.6,1.6,1.3,1.6c0.7,0,1.4-0.6,1.4-1.6c0-0.8-0.3-1.5-1.1-1.5c0.6-0.7,1.4-1,2.3-1c1.5,0,2.2,0.7,2.2,2.3v2.3
			c-2.4,0.9-6.7,2.2-6.7,5.3c0,1.8,1.2,3.1,3.3,3.1c1.9,0,2.7-0.9,3.4-2.1h0.1c0.2,1.5,0.9,2.1,2.2,2.1c1.7,0,2.2-1.2,2.2-4.1
			L176.9,32z M173.2,30.3c0,3.1-1.3,4.7-2.7,4.7c-0.9,0-1.5-0.7-1.5-2.2c0-2.3,2-3.4,4.2-4.1V30.3z"/>
		<path class="st1" d="M178.1,35.8v-0.9c1.1-0.1,1.6-0.6,1.6-1.4v-7.4c0-1.9-0.3-2.5-1.7-2.5v-0.9l3.8-0.2v3.2h0.1
			c0.4-1.4,1.3-3.3,2.9-3.3c1,0,2,0.8,2,2.4c0,1.2-0.6,1.8-1.3,1.8c-0.6,0-1.2-0.4-1.2-1.6c-0.1-0.7,0.4-1.3,1.1-1.3c0,0,0,0,0.1,0
			c-0.2-0.2-0.4-0.3-0.7-0.3c-1.8,0-2.7,4-2.7,6.4v3.9c0,0.8,0.4,1.3,2.3,1.4v0.9H178.1z"/>
		<path class="st1" d="M196.9,29.2c0-4-1.9-6.8-4.9-6.8c-3,0-5.2,2.8-5.2,6.9c0,3.4,2.2,6.8,5.6,6.8c3,0,4.4-2.4,4.6-4.8l-0.9-0.2
			c-0.3,1.9-1.1,3.9-3.5,3.9c-1.8,0-3.2-2.1-3.2-5.9L196.9,29.2z M189.4,28.1c0-3.5,1-4.9,2.6-4.9c1.4,0,2.3,1.4,2.3,4.9H189.4z"/>
		<path class="st1" d="M197.5,20.3h0.5c0.2,0,0.3,0.1,0.3,0.3c0,0,0,0,0,0.1c0,0.2-0.1,0.4-0.3,0.4c0,0,0,0-0.1,0h-0.5V20.3z
			 M197.5,21.3h0.4c0.2,0,0.3,0.1,0.3,0.2c0,0,0,0,0,0c0,0.3,0,0.5,0.1,0.8h0.4c-0.1-0.2-0.1-0.4-0.1-0.6c0-0.5-0.1-0.6-0.4-0.6l0,0
			c0.3,0,0.5-0.3,0.5-0.6c0-0.3-0.2-0.6-0.6-0.6c0,0-0.1,0-0.1,0h-0.9v2.3h0.4V21.3z M197.9,19.2c-1.1,0-2,0.9-2,2c0,1.1,0.9,2,2,2
			c1.1,0,2-0.9,2-2c0,0,0,0,0,0C199.9,20.1,199,19.2,197.9,19.2 M197.9,19.5c0.9,0,1.7,0.8,1.7,1.7c0,0.9-0.8,1.7-1.7,1.7
			c-0.9,0-1.7-0.8-1.7-1.7C196.1,20.2,196.9,19.5,197.9,19.5C197.8,19.5,197.9,19.5,197.9,19.5"/>
		<path class="st1" d="M3.2,35.8h0.3h0.1h0h0.1h0h0.1h0h0.1h0h0.1h0l0.1,0h0l0.1,0h0.1l0.1,0h0l0.1-0.1h0l0.1-0.1h0l0.1-0.4l0,0
			l0.1-0.1l0-0.1l0.1-0.1l0,0l0.1-0.1l0.1-0.1l0.1-0.1l0.1-0.1l0.1-0.1l0.1-0.1l0.1-0.1l0.1-0.1L6,34.2L6,34.1L6.1,34l0.1-0.1
			l0.1-0.1l0.1-0.1l0.1-0.1l0.1-0.1l0.1-0.2l0.1-0.1c0-0.1,0.1-0.1,0.1-0.2l0.1-0.1l0.1-0.2l0.1-0.2L7,32.4L7,32.2L7.1,32l0.1-0.2
			c0-0.1,0.1-0.1,0.1-0.2l0.1-0.2l0.1-0.1l0.1-0.4C8,28.9,8.2,25,8.2,22.4V5.6L0,10v17.2c0,6.6,1.2,8.2,2.7,8.4l0,0L3.2,35.8z"/>
		<path class="st0" d="M5.2,37.5c3.2-0.4,5.1-4,5.5-5.8c0.7-2.4,0.9-5.4,0.9-8.9V3.8L8.2,5.6L10,6v15.3c0,4-0.1,7.4-0.7,9.7
			c-0.9,3.2-2.5,4.5-3.7,5l-2.9-0.3l0,0c0.3,0.9,1,1.5,1.9,1.8L5.2,37.5z"/>
		<path class="st0" d="M4.5,37.5c0.3,0.8,1,1.4,1.8,1.6l0.7,0.1c3.4,0,5.6-3.3,6.4-5c1.1-2.5,1.7-6.2,1.7-11.4V1.9l-3.5,1.9l1.9,0.4
			v17.7c0,4.4-0.2,8.2-1.3,11c-0.9,2.4-2.6,4.3-4.7,4.8l-2.3-0.3L4.5,37.5z"/>
		<path class="st0" d="M15.1,1.9L17,2.3v19.6c0,6-0.6,10.1-2,12.9c-1.3,2.6-3.4,4.3-5.4,4.6l-2.6-0.3l-0.7-0.1
			c0.6,1,1.7,1.7,2.9,1.7c1.6,0.1,2.9-0.6,4.2-1.5c4-2.8,5.2-8.9,5.2-17.2V0L15.1,1.9z"/>
	</g>
</g>
</svg>
